<?xml version="1.0" standalone="no"?>
<!DOCTYPE svg PUBLIC "-//W3C//DTD SVG 1.1//EN" "http://www.w3.org/Graphics/SVG/1.1/DTD/svg11.dtd" >
<svg xmlns="http://www.w3.org/2000/svg" xmlns:xlink="http://www.w3.org/1999/xlink" version="1.1">
<metadata></metadata>
<defs>
<font id="lcd_solidregular" horiz-adv-x="651" >
<font-face units-per-em="1400" ascent="1120" descent="-280" />
<missing-glyph horiz-adv-x="500" />
<glyph horiz-adv-x="0" />
<glyph unicode="&#xd;" />
<glyph unicode=" " />
<glyph unicode="!" d="M286 851h103q10 -1 10 -9v-441q0 -10 -10 -10h-103q-9 0 -9 10v441q1 9 9 9zM286 176h103q10 -2 10 -10v-104q0 -9 -10 -9h-103q-9 0 -9 9v104q1 10 9 10z" />
<glyph unicode="&#x22;" d="M178 853h100q9 -2 9 -9v-319q0 -9 -9 -9h-100q-9 0 -9 9v319q1 9 9 9zM396 853h100q9 -2 9 -9v-319q0 -9 -9 -9h-100q-9 0 -9 9v319q1 9 9 9z" />
<glyph unicode="#" d="M173 851h104q10 -1 10 -9v-216h102v216q2 9 10 9h103q9 -1 9 -9v-216h103q10 -1 10 -10v-102q0 -10 -10 -10h-103v-103h103q10 -1 10 -10v-102q0 -10 -10 -10h-103v-216q0 -9 -9 -9h-103q-10 0 -10 9v216h-102v-216q0 -9 -10 -9h-104q-9 0 -9 9v216h-103q-9 0 -9 10v102 q1 10 9 10h103v103h-103q-9 0 -9 10v102q1 10 9 10h103v216q2 9 9 9zM287 504v-103h102v103h-102z" />
<glyph unicode="$" d="M286 851h102q10 -1 10 -9v-103h215q9 -2 9 -9v-104q0 -9 -9 -9h-440v-102h328q10 -2 10 -10v-103h102q9 -1 9 -10v-102q0 -10 -9 -10h-102v-103q0 -9 -10 -9h-103v-103q0 -10 -10 -10h-102q-9 0 -9 10v103h-216q-9 0 -9 9v103q1 10 9 10h440v102h-328q-9 0 -9 10v103 h-103q-9 0 -9 10v102q1 9 9 9h103v104q2 9 9 9h104v103q1 9 9 9z" />
<glyph unicode="%" d="M62 852h215q10 -1 10 -9v-215q0 -9 -10 -9h-215q-10 0 -10 9v215q2 9 10 9zM511 740h103q9 -1 9 -10v-102q0 -9 -9 -9h-103v-104q0 -9 -9 -9h-103v-102q0 -10 -10 -10h-102v-103q0 -10 -10 -10h-103v-102q0 -10 -9 -10h-103q-10 0 -10 10v102q2 10 10 10h103v103 q1 10 9 10h103v102q1 9 10 9h102v104q2 9 10 9h103v102q1 10 9 10zM399 291h215q9 -1 9 -10v-215q0 -9 -9 -9h-215q-10 0 -10 9v215q2 10 10 10z" />
<glyph unicode="&#x26;" d="M173 851h215q9 -1 9 -9v-103h103q9 -1 9 -9v-103q0 -9 -9 -9h-103v-103q0 -9 -9 -9h-103v-103h103q9 -1 9 -9v-103h103v103q1 9 9 9h103q9 -1 9 -9v-103q0 -9 -9 -9h-103v-103h103q9 -1 9 -10v-102q0 -9 -9 -9h-103q-9 0 -9 9v102h-103v-102q0 -9 -9 -9h-215q-10 0 -10 9 v102h-102q-9 0 -9 10v215q1 9 9 9h102v103h-102q-9 0 -9 9v215q1 9 9 9h102v103q2 9 10 9zM173 730v-215h103v103q1 9 9 9h103v103h-215zM173 394v-215h215v103h-103q-9 0 -9 9v103h-103z" />
<glyph unicode="'" d="M177 851h209q9 -1 9 -9v-209q0 -9 -9 -9h-99v-100q0 -9 -10 -9h-100q-9 0 -9 9v100q1 9 9 9h100v100h-100q-9 0 -9 9v100q1 9 9 9z" />
<glyph unicode="(" d="M401 852h103q9 -2 9 -9v-104q0 -9 -9 -9h-103v-103q0 -10 -10 -10h-103v-328h103q10 -2 10 -9v-104h103q9 -1 9 -10v-103q0 -9 -9 -9h-103q-10 0 -10 9v103h-103q-10 0 -10 10v104h-103q-9 0 -9 9v328q1 10 9 10h103v103q2 9 10 9h103v104q1 9 10 9z" />
<glyph unicode=")" d="M174 853h103q10 -2 10 -9v-104h104q9 -1 9 -10v-103h103q9 -2 9 -9v-329q0 -9 -9 -9h-103v-104q0 -10 -9 -10h-104v-103q0 -9 -10 -9h-103q-9 0 -9 9v103q1 10 9 10h103v104q2 9 10 9h104v329h-104q-10 0 -10 9v103h-103q-9 0 -9 10v104q1 9 9 9z" />
<glyph unicode="*" d="M287 736h101q9 -1 9 -9v-212h102v101q2 9 9 9h102q9 -1 9 -9v-101q0 -10 -9 -10h-102v-101h102q9 -2 9 -10v-102q0 -9 -9 -9h-102q-9 0 -9 9v102h-102v-213q0 -9 -9 -9h-101q-10 0 -10 9v213h-102v-102q0 -9 -9 -9h-102q-9 0 -9 9v102q1 10 9 10h102v101h-102q-9 0 -9 10 v101q1 9 9 9h102q9 -1 9 -9v-101h102v212q1 9 10 9z" />
<glyph unicode="+" d="M287 736h101q9 -2 9 -9v-214h214q9 -2 9 -9v-102q0 -9 -9 -9h-214v-214q0 -9 -9 -9h-101q-10 0 -10 9v214h-213q-9 0 -9 9v102q1 9 9 9h213v214q2 9 10 9z" />
<glyph unicode="," d="M178 391h210q9 -1 9 -9v-209q0 -10 -9 -10h-101v-100q0 -9 -9 -9h-100q-9 0 -9 9v100q1 10 9 10h100v100h-100q-9 0 -9 9v100q1 9 9 9z" />
<glyph unicode="-" d="M60 515h552q10 -1 10 -9v-103q0 -9 -10 -9h-552q-9 0 -9 9v103q1 9 9 9z" />
<glyph unicode="." d="M177 278h205q9 -1 9 -9v-205q0 -9 -9 -9h-205q-9 0 -9 9v205q1 9 9 9z" />
<glyph unicode="/" d="M509 740h104q9 -1 9 -9v-103q0 -9 -9 -9h-104v-103q0 -9 -9 -9h-103v-103q0 -10 -9 -10h-103v-102q0 -9 -9 -9h-103v-104q0 -9 -9 -9h-103q-9 0 -9 9v104q1 9 9 9h103v102q1 10 9 10h103v103q1 9 9 9h103v103q2 9 9 9h103v103q2 9 9 9z" />
<glyph unicode="0" d="M174 850h327q9 -2 9 -9v-103h103q9 -2 9 -10v-551q0 -9 -9 -9h-103v-103q0 -10 -9 -10h-327q-9 0 -9 10v103h-103q-10 0 -10 9v551q2 10 10 10h103v103q1 9 9 9zM174 728v-327h103v103q1 9 9 9h103v103q2 9 9 9h103v103h-327zM398 504v-103q0 -9 -9 -9h-103v-103 q0 -9 -9 -9h-103v-103h327v327h-103z" />
<glyph unicode="1" d="M286 850h102q9 -2 9 -10v-661h103q9 -2 9 -10v-102q0 -9 -9 -9h-326q-9 0 -9 9v102q1 10 9 10h103v437h-103q-9 0 -9 10v102q1 10 9 10h103v102q1 10 9 10z" />
<glyph unicode="2" d="M174 845h326q9 -1 9 -9v-103h103q10 -1 10 -9v-214q0 -9 -10 -9h-103v-103q0 -10 -9 -10h-103v-101q0 -10 -9 -10h-102v-103h326q10 -1 10 -9v-103q0 -9 -10 -9h-550q-9 0 -9 9v103q2 9 9 9h103v103q1 10 9 10h103v101q1 10 9 10h102v103q2 9 9 9h103v214h-326v-102 q0 -9 -9 -9h-103q-9 0 -9 9v102q2 9 9 9h103v103q1 9 9 9z" />
<glyph unicode="3" d="M61 851h552q9 -1 9 -9v-103q0 -9 -9 -9h-103v-103q0 -9 -9 -9h-103v-103h103q9 -2 9 -10v-102h103q9 -2 9 -10v-215q0 -9 -9 -9h-103v-104q0 -9 -9 -9h-328q-9 0 -9 9v104h-103q-9 0 -9 9v102q1 10 9 10h103q9 -1 9 -10v-102h328v215h-103q-10 0 -10 10v102h-102 q-10 0 -10 10v103q1 9 10 9h102v103h-327q-9 0 -9 9v103q1 9 9 9z" />
<glyph unicode="4" d="M398 850h103q10 -1 10 -9v-440h102q9 -1 9 -10v-102q0 -9 -9 -9h-102v-216q0 -9 -10 -9h-103q-10 0 -10 9v216h-327q-9 0 -9 9v215q1 10 9 10h103v102q2 9 9 9h104v104q1 9 9 9h102v103q2 9 10 9zM286 616v-102q0 -10 -9 -10h-104v-103h215v215h-102z" />
<glyph unicode="5" d="M61 853h553q10 -1 10 -9v-103q0 -9 -10 -9h-441v-103h329q9 -2 9 -10v-103h103q10 -1 10 -10v-328q0 -9 -10 -9h-103v-104q0 -9 -9 -9h-329q-9 0 -9 9v104h-103q-9 0 -9 9v103q1 10 9 10h103q9 -1 9 -10v-103h329v328h-441q-9 0 -9 10v328q1 9 9 9z" />
<glyph unicode="6" d="M286 850h215q9 0 9 -9v-102q0 -10 -9 -10h-215v-103q0 -9 -10 -9h-103v-103h328q9 -2 9 -9v-103h103q9 -1 9 -10v-215q0 -9 -9 -9h-103v-103q0 -10 -9 -10h-328q-9 0 -9 10v103h-103q-9 0 -9 9v440q1 9 9 9h103v103q2 10 9 10h103v102q1 9 10 9zM173 392v-215h328v215 h-328z" />
<glyph unicode="7" d="M62 850h551q9 -1 9 -9v-215q0 -9 -9 -9h-102v-102q0 -10 -10 -10h-103v-103q0 -9 -9 -9h-102v-327q0 -9 -10 -9h-102q-10 0 -10 9v327q1 9 10 9h102v103q2 10 10 10h102v102q2 9 9 9h103v103h-439q-9 0 -9 9v103q2 9 9 9z" />
<glyph unicode="8" d="M174 851h327q9 -1 9 -9v-103h103q9 -1 9 -9v-215q0 -10 -9 -10h-103v-102h103q9 -2 9 -9v-215q0 -10 -9 -10h-103v-103q0 -9 -9 -9h-327q-9 0 -9 9v103h-103q-10 0 -10 10v215q2 9 10 9h103v102h-103q-10 0 -10 10v215q2 9 10 9h103v103q1 9 9 9zM174 730v-215h327v215 h-327zM174 394v-215h327v215h-327z" />
<glyph unicode="9" d="M175 852h327q10 -2 10 -9v-104h103q10 -1 10 -9v-440q0 -10 -10 -10h-103v-103q0 -9 -10 -9h-102v-103q0 -10 -10 -10h-215q-9 0 -9 10v103q0 9 9 9h215v103q1 10 10 10h102v103h-327q-9 0 -9 9v103h-104q-9 0 -9 10v215q1 9 9 9h104v104q0 9 9 9zM175 730v-215h327v215 h-327z" />
<glyph unicode=":" d="M173 738h215q9 -2 9 -9v-214q0 -10 -9 -10h-215q-9 0 -9 10v214q2 9 9 9zM173 404h215q9 -2 9 -10v-214q0 -9 -9 -9h-215q-9 0 -9 9v214q2 10 9 10z" />
<glyph unicode=";" d="M173 736h215q9 -1 9 -9v-215q0 -9 -9 -9h-215q-9 0 -9 9v215q2 9 9 9zM173 401h215q9 -2 9 -10v-215q0 -10 -9 -10h-102v-102q0 -9 -10 -9h-103q-9 0 -9 9v102q2 10 9 10h103v103h-103q-9 0 -9 9v103q2 10 9 10z" />
<glyph unicode="&#x3c;" d="M397 850h103q9 0 9 -9v-103q0 -9 -9 -9h-103v-104q0 -9 -10 -9h-103v-103q0 -9 -10 -9h-102v-103h102q10 -2 10 -10v-103h103q10 -1 10 -10v-102h103q9 -2 9 -10v-104q0 -9 -9 -9h-103q-10 0 -10 9v104h-103q-10 0 -10 10v102h-102q-10 0 -10 10v103h-103q-10 0 -10 10 v103q2 9 10 9h103v103q1 9 10 9h102v104q2 9 10 9h103v103q1 9 10 9z" />
<glyph unicode="=" d="M60 629h550q9 -2 9 -10v-102q0 -10 -9 -10h-550q-9 0 -9 10v102q1 10 9 10zM60 405h550q9 -1 9 -10v-102q0 -10 -9 -10h-550q-9 0 -9 10v102q1 10 9 10z" />
<glyph unicode="&#x3e;" d="M60 853h104q9 -2 9 -9v-105h104q10 -1 10 -9v-103h103q9 -2 9 -10v-103h104q9 -2 9 -9v-104q0 -10 -9 -10h-104v-103q0 -10 -9 -10h-103v-103q0 -9 -10 -9h-104v-104q0 -10 -9 -10h-104q-9 0 -9 10v104q1 9 9 9h104v103q2 10 9 10h104v103q1 10 10 10h103v104h-103 q-10 0 -10 9v103h-104q-9 0 -9 10v103h-104q-9 0 -9 9v105q1 9 9 9z" />
<glyph unicode="?" d="M174 853h328q10 -1 10 -9v-103h103q10 -2 10 -9v-216q0 -10 -10 -10h-103v-102q0 -10 -10 -10h-102v-103q0 -10 -10 -10h-103q-10 0 -10 10v103q2 10 10 10h103v102q1 10 10 10h102v216h-328v-103q0 -10 -9 -10h-103q-10 0 -10 10v103q2 9 10 9h103v103q1 9 9 9zM287 178 h103q10 -1 10 -9v-104q0 -9 -10 -9h-103q-10 0 -10 9v104q2 9 10 9z" />
<glyph unicode="@" d="M174 852h329q9 -2 9 -9v-104h104q9 -1 9 -9v-554q0 -10 -9 -10h-104v-104q0 -9 -9 -9h-329q-10 0 -10 9v104h-103q-9 0 -9 10v215q1 10 9 10h103v104q2 9 10 9h216q9 -2 9 -9v-329h104v554h-329v-104q0 -9 -10 -9h-103q-9 0 -9 9v104q1 9 9 9h103v104q2 9 10 9zM174 391 v-215h103v215h-103z" />
<glyph unicode="A" d="M175 850h327q10 -1 10 -9v-103h103q9 -2 9 -9v-665q0 -9 -9 -9h-103q-10 0 -10 9v216h-327v-216q0 -9 -9 -9h-104q-9 0 -9 9v665q2 9 9 9h104v103q1 9 9 9zM175 729v-328h327v328h-327z" />
<glyph unicode="B" d="M62 850h440q9 -1 9 -9v-103h103q10 -2 10 -9v-215q0 -9 -10 -9h-103v-104h103q10 -1 10 -9v-215q0 -9 -10 -9h-103v-103q0 -10 -9 -10h-440q-9 0 -9 10v776q2 9 9 9zM175 729v-215h327v215h-327zM175 392v-215h327v215h-327z" />
<glyph unicode="C" d="M175 851h328q9 -1 9 -9v-103h104q9 -2 9 -9v-104q0 -9 -9 -9h-104q-9 0 -9 9v104h-328v-554h328v104q2 9 9 9h104q9 -2 9 -9v-104q0 -9 -9 -9h-104v-103q0 -9 -9 -9h-328q-9 0 -9 9v103h-104q-9 0 -9 9v554q2 9 9 9h104v103q1 9 9 9z" />
<glyph unicode="D" d="M63 851h328q10 -1 10 -9v-103h102q10 -2 10 -9v-104h103q9 -1 9 -9v-327q0 -10 -9 -10h-103v-103q0 -9 -10 -9h-102v-103q0 -10 -10 -10h-328q-9 0 -9 10v777q1 9 9 9zM176 730v-553h215v103q1 10 10 10h102v327h-102q-10 0 -10 9v104h-215z" />
<glyph unicode="E" d="M62 853h554q9 -2 9 -9v-104q0 -9 -9 -9h-441v-216h328q9 -1 9 -9v-103q0 -9 -9 -9h-328v-216h441q9 -2 9 -9v-104q0 -9 -9 -9h-554q-9 0 -9 9v779q2 9 9 9z" />
<glyph unicode="F" d="M58 853h553q10 -2 10 -9v-104q0 -9 -10 -9h-441v-216h329q9 -1 9 -10v-102q0 -10 -9 -10h-329v-328q0 -10 -9 -10h-103q-9 0 -9 10v779q1 9 9 9z" />
<glyph unicode="G" d="M171 852h327q9 -2 9 -9v-104h103q9 0 9 -9v-102q0 -9 -9 -9h-103q-9 0 -9 9v102h-327v-551h327v215h-215q-9 0 -9 10v102q1 9 9 9h327q9 -1 9 -9v-439q0 -9 -9 -9h-439q-9 0 -9 9v103h-103q-10 0 -10 9v551q2 9 10 9h103v104q1 9 9 9z" />
<glyph unicode="H" d="M64 851h103q9 -1 9 -9v-327h328v327q1 9 10 9h102q9 -1 9 -9v-777q0 -10 -9 -10h-102q-10 0 -10 10v327h-328v-327q0 -10 -9 -10h-103q-9 0 -9 10v777q1 9 9 9z" />
<glyph unicode="I" d="M174 853h328q9 -2 9 -9v-104q0 -9 -9 -9h-103v-553h103q9 -2 9 -9v-104q0 -9 -9 -9h-328q-9 0 -9 9v104q1 9 9 9h103v553h-103q-9 0 -9 9v104q1 9 9 9z" />
<glyph unicode="J" d="M287 851h327q9 -1 9 -9v-103q0 -9 -9 -9h-103v-551q0 -10 -9 -10h-103v-103q0 -9 -9 -9h-215q-9 0 -9 9v103h-104q-9 0 -9 10v102q2 9 9 9h104q9 -1 9 -9v-102h215v551h-103q-10 0 -10 9v103q2 9 10 9z" />
<glyph unicode="K" d="M62 851h104q9 -1 9 -9v-327h102v102q2 10 10 10h103v103q1 9 9 9h103v103q2 9 9 9h103q10 -1 10 -9v-103q0 -9 -10 -9h-103v-103q0 -10 -9 -10h-103v-102q0 -10 -9 -10h-103v-103h103q9 -1 9 -9v-103h103q9 -1 9 -10v-102h103q10 -2 10 -9v-104q0 -9 -10 -9h-103 q-9 0 -9 9v104h-103q-9 0 -9 9v102h-103q-10 0 -10 10v103h-102v-328q0 -9 -9 -9h-104q-9 0 -9 9v777q2 9 9 9z" />
<glyph unicode="L" d="M55 851h104q9 -1 9 -9v-666h442q9 -1 9 -10v-103q0 -9 -9 -9h-555q-9 0 -9 9v779q2 9 9 9z" />
<glyph unicode="M" d="M62 850h104q9 -1 9 -9v-103h103q9 -2 9 -9v-104h104v104q1 9 9 9h103v103q2 9 9 9h104q9 -1 9 -9v-778q0 -9 -9 -9h-104q-9 0 -9 9v553h-103v-215q0 -10 -9 -10h-104q-9 0 -9 10v215h-103v-553q0 -9 -9 -9h-104q-9 0 -9 9v778q2 9 9 9z" />
<glyph unicode="N" d="M62 853h104q10 -2 10 -9v-216h102q10 -2 10 -10v-103h103q10 -2 10 -10v-103h103v442q1 9 9 9h103q10 -2 10 -9v-780q0 -9 -10 -9h-103q-9 0 -9 9v216h-103q-10 0 -10 10v103h-103q-10 0 -10 9v103h-102v-441q0 -9 -10 -9h-104q-9 0 -9 9v780q2 9 9 9z" />
<glyph unicode="O" d="M174 852h328q9 -2 9 -9v-104h104q9 -1 9 -9v-553q0 -9 -9 -9h-104v-103q0 -10 -9 -10h-328q-9 0 -9 10v103h-103q-10 0 -10 9v553q2 9 10 9h103v104q1 9 9 9zM174 730v-553h328v553h-328z" />
<glyph unicode="P" d="M62 850h440q9 -1 9 -9v-103h104q9 -2 9 -9v-216q0 -9 -9 -9h-104v-103q0 -10 -9 -10h-328v-328q0 -9 -9 -9h-103q-10 0 -10 9v778q2 9 10 9zM174 729v-216h328v216h-328z" />
<glyph unicode="Q" d="M174 851h327q9 -1 9 -9v-103h103q9 -1 9 -9v-440q0 -9 -9 -9h-103v-102h103q9 -2 9 -10v-103q0 -9 -9 -9h-103q-9 0 -9 9v103h-103v-103q0 -9 -9 -9h-215q-9 0 -9 9v103h-103q-10 0 -10 10v551q2 9 10 9h103v103q1 9 9 9zM174 730v-551h215v102h-103q-9 0 -9 9v104 q1 9 9 9h103q9 -2 9 -9v-104h103v440h-327z" />
<glyph unicode="R" d="M62 851h440q9 -1 9 -9v-103h103q9 -2 9 -9v-215q0 -10 -9 -10h-103v-103q0 -10 -9 -10h-103v-102h103q9 -2 9 -10v-103h103q9 -1 9 -9v-103q0 -10 -9 -10h-103q-9 0 -9 10v103h-103q-10 0 -10 9v103h-102q-10 0 -10 10v102h-103v-327q0 -10 -9 -10h-103q-10 0 -10 10v777 q2 9 10 9zM174 730v-215h328v215h-328z" />
<glyph unicode="S" d="M173 852h441q9 -2 9 -9v-104q0 -9 -9 -9h-441v-215h329q9 -2 9 -10v-103h103q9 -1 9 -9v-216q0 -9 -9 -9h-103v-103q0 -10 -9 -10h-441q-9 0 -9 10v103q1 9 9 9h441v216h-329q-9 0 -9 9v103h-103q-9 0 -9 10v215q1 9 9 9h103v104q2 9 9 9z" />
<glyph unicode="T" d="M60 853h554q9 -1 9 -9v-103q0 -9 -9 -9h-216v-667q0 -9 -10 -9h-102q-10 0 -10 9v667h-216q-9 0 -9 9v103q1 9 9 9z" />
<glyph unicode="U" d="M60 851h103q10 -1 10 -9v-664h327v664q2 9 9 9h103q10 -1 10 -9v-664q0 -9 -10 -9h-103v-104q0 -9 -9 -9h-327q-10 0 -10 9v104h-103q-9 0 -9 9v664q1 9 9 9z" />
<glyph unicode="V" d="M62 850h102q10 -2 10 -9v-551h103q9 -2 9 -10v-102h102v102q2 10 9 10h104v551q1 9 9 9h103q9 -2 9 -9v-551q0 -10 -9 -10h-103v-102q0 -10 -9 -10h-104v-103q0 -9 -9 -9h-102q-9 0 -9 9v103h-103q-10 0 -10 10v102h-102q-10 0 -10 10v551q2 9 10 9z" />
<glyph unicode="W" d="M61 851h102q10 -1 10 -9v-663h103v327q1 9 9 9h103q9 -1 9 -9v-327h103v663q1 9 9 9h103q9 -1 9 -9v-663q0 -10 -9 -10h-103v-102q0 -9 -9 -9h-103q-9 0 -9 9v102h-103v-102q0 -9 -9 -9h-103q-10 0 -10 9v102h-102q-9 0 -9 10v663q1 9 9 9z" />
<glyph unicode="X" d="M62 851h104q9 -1 9 -9v-216h103q10 -1 10 -10v-102h103v102q1 10 10 10h102v216q2 9 10 9h103q9 -1 9 -9v-216q0 -10 -9 -10h-103v-102q0 -10 -10 -10h-102v-103h102q10 -1 10 -10v-102h103q9 -2 9 -10v-216q0 -9 -9 -9h-103q-10 0 -10 9v216h-102q-10 0 -10 10v102h-103 v-102q0 -10 -10 -10h-103v-216q0 -9 -9 -9h-104q-9 0 -9 9v216q2 10 9 10h104v102q1 10 9 10h103v103h-103q-9 0 -9 10v102h-104q-9 0 -9 10v216q2 9 9 9z" />
<glyph unicode="Y" d="M62 853h103q9 -1 9 -9v-328h103q10 -1 10 -9v-103h102v103q2 9 10 9h103v328q1 9 9 9h103q9 -1 9 -9v-328q0 -9 -9 -9h-103v-103q0 -10 -9 -10h-103v-327q0 -9 -10 -9h-102q-10 0 -10 9v327h-103q-9 0 -9 10v103h-103q-10 0 -10 9v328q2 9 10 9z" />
<glyph unicode="Z" d="M65 853h552q9 -2 9 -9v-216q0 -9 -9 -9h-102v-103q0 -10 -10 -10h-103v-102q0 -10 -10 -10h-102v-103q0 -9 -10 -9h-103v-103h440q9 -2 9 -10v-103q0 -9 -9 -9h-552q-10 0 -10 9v216q2 9 10 9h103v103q1 10 9 10h103v102q2 10 10 10h102v103q2 9 10 9h103v103h-440 q-10 0 -10 9v104q2 9 10 9z" />
<glyph unicode="[" d="M174 851h328q9 -1 9 -9v-103q0 -9 -9 -9h-215v-554h215q9 -1 9 -9v-103q0 -9 -9 -9h-328q-9 0 -9 9v778q1 9 9 9z" />
<glyph unicode="\" d="M61 737h102q10 -1 10 -9v-103h102q10 -1 10 -9v-102h102q10 -2 10 -10v-102h102q9 -1 9 -10v-102h103q9 -2 9 -10v-102q0 -9 -9 -9h-103q-9 0 -9 9v102h-102q-10 0 -10 10v102h-102q-10 0 -10 10v102h-102q-10 0 -10 10v102h-102q-9 0 -9 9v103q1 9 9 9z" />
<glyph unicode="]" d="M176 851h328q9 -1 9 -9v-776q0 -9 -9 -9h-328q-9 0 -9 9v103q2 10 9 10h215v551h-215q-9 0 -9 9v103q2 9 9 9z" />
<glyph unicode="^" d="M286 857h102q9 -2 9 -10v-101h101q10 -2 10 -10v-101h101q9 -1 9 -9v-102q0 -9 -9 -9h-101q-10 0 -10 9v102h-101q-9 0 -9 9v101h-102v-101q0 -9 -9 -9h-101v-102q0 -9 -10 -9h-101q-10 0 -10 9v102q2 9 10 9h101v101q2 10 10 10h101v101q1 10 9 10z" />
<glyph unicode="_" d="M64 170h549q9 -1 9 -9v-102q0 -10 -9 -10h-549q-9 0 -9 10v102q1 9 9 9z" />
<glyph unicode="`" d="M289 856h103q9 -2 9 -9v-104h104q9 -1 9 -9v-103q0 -9 -9 -9h-104q-9 0 -9 9v103h-103q-9 0 -9 9v104q1 9 9 9z" />
<glyph unicode="a" d="M176 622h326q9 -2 9 -9v-103h102q9 -2 9 -9v-437q0 -9 -9 -9h-437q-9 0 -9 9v102h-102q-10 0 -10 10v102q2 9 10 9h102v102q2 9 9 9h326v103h-326q-9 0 -9 9v103q2 9 9 9zM176 278v-102h326v102h-326z" />
<glyph unicode="b" d="M61 851h103q9 -1 9 -9v-327h103v103q1 9 9 9h215q9 -2 9 -9v-103h104q9 -1 9 -10v-326q0 -10 -9 -10h-104v-103q0 -9 -9 -9h-439q-9 0 -9 9v776q1 9 9 9zM285 505v-102q0 -9 -9 -9h-103v-215h327v326h-215z" />
<glyph unicode="c" d="M176 622h324q9 -2 9 -9v-103q0 -9 -9 -9h-324v-325h324v102q2 9 9 9h103q9 -1 9 -9v-102q0 -9 -9 -9h-103v-102q0 -10 -9 -10h-324q-10 0 -10 10v102h-102q-9 0 -9 9v325q1 9 9 9h102v103q1 9 10 9z" />
<glyph unicode="d" d="M512 849h103q10 -2 10 -9v-777q0 -9 -10 -9h-439q-10 0 -10 9v103h-103q-9 0 -9 10v327q1 9 9 9h103v103q2 10 10 10h215q9 -2 9 -10v-103h103v328q2 9 9 9zM176 503v-327h327v215h-103q-9 0 -9 9v103h-215z" />
<glyph unicode="e" d="M176 621h324q9 -2 9 -9v-103h103q9 -1 9 -9v-213q0 -10 -9 -10h-436v-101h324q9 -2 9 -10v-102q0 -9 -9 -9h-324q-10 0 -10 9v102h-102q-9 0 -9 10v324q1 9 9 9h102v103q1 9 10 9zM176 500v-102h324v102h-324z" />
<glyph unicode="f" d="M284 852h216q9 -2 9 -9v-104h104q9 -1 9 -9v-103q0 -9 -9 -9h-104q-9 0 -9 9v103h-216v-215h104q9 -2 9 -10v-103q0 -9 -9 -9h-104v-328q0 -10 -9 -10h-103q-9 0 -9 10v328h-104q-9 0 -9 9v103q2 10 9 10h104v215q1 9 9 9h103v104q2 9 9 9z" />
<glyph unicode="g" d="M177 724h433q9 -2 9 -10v-543q0 -10 -9 -10h-102v-101q0 -9 -9 -9h-322q-10 0 -10 9v101q2 10 10 10h322v101h-322q-10 0 -10 9v101h-101q-9 0 -9 10v211q2 10 9 10h101v101q2 10 10 10zM177 603v-211h322v211h-322z" />
<glyph unicode="h" d="M61 851h103q9 -1 9 -9v-327h103v103q1 9 10 9h215q9 -2 9 -9v-103h103q9 -2 9 -10v-440q0 -9 -9 -9h-103q-9 0 -9 9v440h-215v-102q0 -10 -10 -10h-103v-328q0 -9 -9 -9h-103q-9 0 -9 9v777q1 9 9 9z" />
<glyph unicode="i" d="M287 853h103q9 -2 9 -9v-104q0 -9 -9 -9h-103q-10 0 -10 9v104q2 9 10 9zM174 628h216q9 -2 9 -9v-440h103q9 -2 9 -10v-103q0 -9 -9 -9h-328q-9 0 -9 9v103q1 10 9 10h103v327h-103q-9 0 -9 10v103q1 9 9 9z" />
<glyph unicode="j" d="M401 851h103q10 -1 10 -9v-103q0 -9 -10 -9h-103q-10 0 -10 9v103q2 9 10 9zM289 626h215q10 -1 10 -9v-440q0 -9 -10 -9h-103v-103q0 -10 -10 -10h-215q-9 0 -9 10v103h-103q-9 0 -9 9v103q1 10 9 10h103q9 -2 9 -10v-103h215v328h-102q-9 0 -9 10v102q1 9 9 9z" />
<glyph unicode="k" d="M60 850h103q10 -1 10 -9v-440h102v104q2 9 10 9h103v102q1 10 9 10h103q9 -1 9 -10v-102q0 -9 -9 -9h-103v-104q0 -9 -9 -9h-103v-102h103q9 -2 9 -10v-103h103q9 -1 9 -9v-103q0 -10 -9 -10h-103q-9 0 -9 10v103h-103q-10 0 -10 9v103h-102v-215q0 -10 -10 -10h-103 q-9 0 -9 10v776q1 9 9 9z" />
<glyph unicode="l" d="M173 851h215q9 -1 9 -9v-665h103q10 -1 10 -9v-103q0 -10 -10 -10h-327q-10 0 -10 10v103q2 9 10 9h103v553h-103q-10 0 -10 9v103q2 9 10 9z" />
<glyph unicode="m" d="M64 622h213q10 -2 10 -9v-102h101v102q2 9 9 9h102q10 -2 10 -9v-102h102q9 -2 9 -10v-436q0 -9 -9 -9h-102q-10 0 -10 9v436h-102v-213q0 -9 -9 -9h-101q-10 0 -10 9v213h-101v-436q0 -9 -10 -9h-102q-9 0 -9 9v548q1 9 9 9z" />
<glyph unicode="n" d="M63 622h102q10 -2 10 -9v-102h102v102q1 9 9 9h213q9 -2 9 -9v-102h102q9 -2 9 -10v-436q0 -9 -9 -9h-102q-9 0 -9 9v436h-213v-102q0 -9 -9 -9h-102v-325q0 -9 -10 -9h-102q-9 0 -9 9v548q1 9 9 9z" />
<glyph unicode="o" d="M176 621h324q10 -2 10 -9v-102h102q9 -2 9 -10v-324q0 -10 -9 -10h-102v-101q0 -10 -10 -10h-324q-10 0 -10 10v101h-101q-10 0 -10 10v324q2 10 10 10h101v102q2 9 10 9zM176 500v-324h324v324h-324z" />
<glyph unicode="p" d="M63 623h438q9 -1 9 -9v-103h103q9 -1 9 -9v-102q0 -9 -9 -9h-103v-103q0 -9 -9 -9h-326v-214q0 -10 -9 -10h-103q-9 0 -9 10v549q1 9 9 9zM175 502v-102h326v102h-326z" />
<glyph unicode="q" d="M176 623h214q9 -1 9 -9v-103h103v103q1 9 9 9h102q9 -1 9 -9v-549q0 -9 -9 -9h-102q-9 0 -9 9v215h-326q-9 0 -9 9v102h-102q-10 0 -10 9v102q2 9 10 9h102v103q2 9 9 9zM176 502v-102h214v102h-214z" />
<glyph unicode="r" d="M65 619h102q9 -1 9 -9v-102h102v102q2 9 9 9h213q9 -1 9 -9v-102h102q9 -1 9 -9v-102q0 -9 -9 -9h-102q-9 0 -9 9v102h-213v-102q0 -9 -9 -9h-102v-323q0 -10 -9 -10h-102q-9 0 -9 10v545q2 9 9 9z" />
<glyph unicode="s" d="M176 624h327q9 -2 9 -9v-104q0 -9 -9 -9h-327v-102h327q9 -2 9 -9v-104h104q9 -1 9 -9v-102q0 -10 -9 -10h-104v-103q0 -9 -9 -9h-439q-9 0 -9 9v103q1 10 9 10h439v102h-327q-9 0 -9 9v104h-103q-9 0 -9 9v102q1 9 9 9h103v104q1 9 9 9z" />
<glyph unicode="t" d="M175 853h103q10 -2 10 -9v-216h103q10 -2 10 -10v-103q0 -10 -10 -10h-103v-328h215v103q2 10 10 10h103q9 -1 9 -10v-103q0 -9 -9 -9h-103v-103q0 -10 -10 -10h-215q-10 0 -10 10v103h-103q-9 0 -9 9v328h-104q-9 0 -9 10v103q2 10 9 10h104v216q1 9 9 9z" />
<glyph unicode="u" d="M62 621h102q10 -2 10 -9v-436h213v102q1 9 9 9h102v325q1 9 10 9h102q9 -2 9 -9v-547q0 -10 -9 -10h-102q-10 0 -10 10v101h-102v-101q0 -10 -9 -10h-213q-10 0 -10 10v101h-102q-9 0 -9 10v436q2 9 9 9z" />
<glyph unicode="v" d="M64 622h102q10 -2 10 -9v-325h101q10 -1 10 -9v-102h101v102q2 9 9 9h102v325q2 9 10 9h102q9 -2 9 -9v-325q0 -9 -9 -9h-102v-102q0 -10 -10 -10h-102v-102q0 -9 -9 -9h-101q-10 0 -10 9v102h-101q-10 0 -10 10v102h-102q-9 0 -9 9v325q1 9 9 9z" />
<glyph unicode="w" d="M65 619h102q9 -1 9 -9v-437h103v214q1 9 9 9h102q9 -1 9 -9v-214h103v437q1 9 9 9h102q9 -1 9 -9v-437q0 -9 -9 -9h-102v-102q0 -10 -9 -10h-103q-9 0 -9 10v102h-102v-102q0 -10 -9 -10h-103q-9 0 -9 10v102h-102q-10 0 -10 9v437q2 9 10 9z" />
<glyph unicode="x" d="M63 624h103q9 -2 9 -9v-103h102q10 -1 10 -9v-102h101v102q2 9 9 9h103v103q2 9 9 9h103q9 -2 9 -9v-103q0 -9 -9 -9h-103v-102q0 -10 -9 -10h-103v-101h103q9 -2 9 -10v-102h103q9 -2 9 -9v-103q0 -9 -9 -9h-103q-9 0 -9 9v103h-103q-9 0 -9 9v102h-101v-102 q0 -9 -10 -9h-102v-103q0 -9 -9 -9h-103q-9 0 -9 9v103q1 9 9 9h103v102q1 10 9 10h102v101h-102q-9 0 -9 10v102h-103q-9 0 -9 9v103q1 9 9 9z" />
<glyph unicode="y" d="M63 622h103q9 -2 9 -9v-214h324v214q2 9 9 9h103q9 -2 9 -9v-437q0 -9 -9 -9h-103v-102q0 -10 -9 -10h-324q-9 0 -9 10v102q0 9 9 9h324v102h-324q-9 0 -9 9v103h-103q-9 0 -9 9v214q1 9 9 9z" />
<glyph unicode="z" d="M61 623h552q9 -1 9 -9v-103q0 -9 -9 -9h-103v-103q0 -10 -9 -10h-103v-102q0 -10 -10 -10h-102v-103h327q9 -1 9 -9v-103q0 -10 -9 -10h-552q-9 0 -9 10v103q1 9 9 9h103v103q2 10 9 10h103v102q1 10 10 10h102v103h-327q-9 0 -9 9v103q1 9 9 9z" />
<glyph unicode="{" d="M319 850h103q10 -2 10 -9v-104q0 -9 -10 -9h-103v-215q0 -10 -9 -10h-103v-102h103q9 -2 9 -10v-215h103q10 -2 10 -10v-103q0 -9 -10 -9h-103q-9 0 -9 9v103h-103q-9 0 -9 10v215h-104q-9 0 -9 10v102q2 10 9 10h104v215q1 9 9 9h103v104q2 9 9 9z" />
<glyph unicode="|" d="M287 849h102q10 -2 10 -9v-775q0 -10 -10 -10h-102q-10 0 -10 10v775q2 9 10 9z" />
<glyph unicode="}" d="M253 850h103q10 -1 10 -9v-102h102q9 -2 9 -10v-214h103q9 -2 9 -10v-103q0 -9 -9 -9h-103v-214q0 -10 -9 -10h-102v-103q0 -9 -10 -9h-103q-9 0 -9 9v103q1 10 9 10h103v214q1 9 10 9h102v103h-102q-10 0 -10 10v214h-103q-9 0 -9 10v102q1 9 9 9z" />
<glyph unicode="~" d="M116 505h205q8 -1 8 -9v-98h205v98q2 9 9 9h98q9 -1 9 -9v-98q0 -8 -9 -8h-98v-98q0 -9 -9 -9h-205q-8 0 -8 9v98h-205v-98q0 -9 -9 -9h-98q-9 0 -9 9v98q2 8 9 8h98v98q1 9 9 9z" />
<glyph unicode="&#xa0;" />
<glyph unicode="&#xa1;" d="M285 55v105h105v-105h-105zM285 170v105h105v-105h-105zM285 286v105h105v-105h-105zM285 401v104h105v-104h-105zM285 631v105h105v-105h-105z" />
<glyph unicode="&#xa2;" d="M285 55v105h105v-105h-105zM169 170v105h105v-105h-105zM285 170v105h105v-105h-105zM400 170v105h105v-105h-105zM55 285v105h104v-105h-104zM285 286v105h104v-105h-104zM515 286v105h105v-105h-105zM55 401v104h104v-104h-104zM285 401v104h104v-104h-104zM55 516v104 h104v-104h-104zM285 516v104h104v-104h-104zM169 631v105h105v-105h-105zM285 631v105h104v-105h-104zM400 631v105h105v-105h-105zM285 746v105h104v-105h-104z" />
<glyph unicode="&#xa3;" d="M169 55v105h105v-105h-105zM285 55v105h105v-105h-105zM400 55v105h105v-105h-105zM515 55v105h105v-105h-105zM169 170v105h105v-105h-105zM169 286v104h105v-104h-105zM55 401v104h104v-104h-104zM169 401v104h105v-104h-105zM285 401v104h104v-104h-104zM400 401v104 h105v-104h-105zM169 516v104h105v-104h-105zM169 631v105h105v-105h-105zM400 631v105h105v-105h-105zM285 746v105h104v-105h-104z" />
<glyph unicode="&#xa4;" d="M55 55v105h104v-105h-104zM515 55v105h105v-105h-105zM169 170v105h105v-105h-105zM285 170v105h104v-105h-104zM400 170v105h105v-105h-105zM55 285v105h104v-105h-104zM515 286v105h105v-105h-105zM55 401v104h104v-104h-104zM515 401v104h105v-104h-105zM55 516v104 h104v-104h-104zM515 516v105h105v-105h-105zM169 631v105h105v-105h-105zM285 631v105h104v-105h-104zM400 631v105h105v-105h-105zM55 746v105h104v-105h-104zM515 746v105h105v-105h-105z" />
<glyph unicode="&#xa5;" d="M285 55v105h104v-105h-104zM55 170v104h104v-104h-104zM169 170v105h105v-105h-105zM285 170v105h104v-105h-104zM400 170v105h105v-105h-105zM515 170v105h105v-105h-105zM285 286v104h104v-104h-104zM55 401v104h104v-104h-104zM169 401v104h105v-104h-105zM285 401 v104h104v-104h-104zM400 401v104h105v-104h-105zM515 401v104h105v-104h-105zM285 516v104h104v-104h-104zM169 631v105h105v-105h-105zM400 631v105h105v-105h-105zM55 746v105h104v-105h-104zM515 746v105h105v-105h-105z" />
<glyph unicode="&#xa6;" d="M285 55v105h105v-105h-105zM285 170v105h105v-105h-105zM285 286v105h105v-105h-105zM285 516v105h105v-105h-105zM285 631v105h105v-105h-105zM285 746v105h105v-105h-105z" />
<glyph unicode="&#xa7;" d="M169 55v105h105v-105h-105zM285 55v105h104v-105h-104zM400 55v105h105v-105h-105zM515 170v105h105v-105h-105zM285 286v105h104v-105h-104zM400 286v105h105v-105h-105zM515 286v105h105v-105h-105zM169 401v104h105v-104h-105zM400 401v104h105v-104h-105zM55 516v104 h104v-104h-104zM169 516v104h105v-104h-105zM285 516v104h104v-104h-104zM55 631v105h104v-105h-104zM169 746v105h105v-105h-105zM285 746v105h104v-105h-104zM400 746v105h105v-105h-105z" />
<glyph unicode="&#xa8;" d="M285 170v105h104v-105h-104zM169 286v104h105v-104h-105zM285 286v104h104v-104h-104zM400 286v105h105v-105h-105zM55 401v104h104v-104h-104zM169 401v104h105v-104h-105zM285 401v104h104v-104h-104zM400 401v104h105v-104h-105zM515 401v104h105v-104h-105zM55 516 v104h104v-104h-104zM169 516v104h105v-104h-105zM285 516v104h104v-104h-104zM400 516v104h105v-104h-105zM515 516v105h105v-105h-105zM55 631v105h104v-105h-104zM169 631v105h105v-105h-105zM400 631v105h105v-105h-105zM515 631v105h105v-105h-105z" />
<glyph unicode="&#xa9;" d="M169 55v105h105v-105h-105zM285 55v105h104v-105h-104zM400 55v105h105v-105h-105zM55 170v104h104v-104h-104zM515 170v105h105v-105h-105zM55 285v105h104v-105h-104zM285 286v104h104v-104h-104zM515 286v105h105v-105h-105zM55 401v104h104v-104h-104zM169 401v104 h105v-104h-105zM515 401v104h105v-104h-105zM55 515v105h104v-105h-104zM285 516v104h104v-104h-104zM515 516v105h105v-105h-105zM55 631v105h104v-105h-104zM515 631v105h105v-105h-105zM169 746v105h105v-105h-105zM285 746v105h104v-105h-104zM400 746v105h105v-105 h-105z" />
<glyph unicode="&#xaa;" d="M55 55v105h104v-105h-104zM169 55v105h105v-105h-105zM285 55v105h104v-105h-104zM401 55v105h104v-105h-104zM55 170v105h104v-105h-104zM400 170v105h105v-105h-105zM55 285v105h104v-105h-104zM400 286v105h105v-105h-105zM55 401v104h104v-104h-104zM400 401v104h105 v-104h-105zM55 516v104h104v-104h-104zM169 516v104h105v-104h-105zM285 516v104h104v-104h-104zM400 516v105h105v-105h-105zM169 631v105h105v-105h-105zM169 746v105h105v-105h-105z" />
<glyph unicode="&#xab;" d="M55 55v105h104v-105h-104zM169 55v105h105v-105h-105zM400 55v105h105v-105h-105zM515 55v105h105v-105h-105zM285 170v105h104v-105h-104zM55 285v105h104v-105h-104zM169 285v105h105v-105h-105zM400 286v105h105v-105h-105zM515 286v105h105v-105h-105zM55 515v105 h104v-105h-104zM169 516v104h105v-104h-105zM285 516v104h104v-104h-104zM400 516v104h105v-104h-105zM515 516v105h105v-105h-105zM55 631v105h104v-105h-104zM285 631v105h104v-105h-104zM515 631v105h105v-105h-105zM169 746v105h105v-105h-105zM285 746v105h104v-105 h-104zM400 746v105h105v-105h-105z" />
<glyph unicode="&#xac;" d="M169 55v105h105v-105h-105zM400 55v105h105v-105h-105zM169 170v104h105v-104h-105zM400 170v105h105v-105h-105zM55 285v105h104v-105h-104zM169 285v105h105v-105h-105zM285 285v105h104v-105h-104zM400 286v105h105v-105h-105zM515 286v105h105v-105h-105zM55 401v104 h104v-104h-104zM285 401v104h104v-104h-104zM515 401v104h105v-104h-105zM55 515v105h104v-105h-104zM169 515v105h105v-105h-105zM285 516v104h104v-104h-104zM400 516v104h105v-104h-105zM515 516v105h105v-105h-105zM55 631v105h104v-105h-104zM285 631v105h104v-105 h-104zM515 631v105h105v-105h-105zM169 746v105h105v-105h-105zM285 746v105h104v-105h-104zM400 746v105h105v-105h-105z" />
<glyph unicode="&#xad;" d="M60 515h552q10 -1 10 -9v-103q0 -9 -10 -9h-552q-9 0 -9 9v103q1 9 9 9z" />
<glyph unicode="&#xae;" d="M285 170v105h105v-105h-105zM400 170v105h105v-105h-105zM515 170v105h105v-105h-105zM285 286v104h105v-104h-105zM400 286v105h105v-105h-105zM515 286v105h105v-105h-105zM285 401v104h104v-104h-104zM400 401v104h105v-104h-105zM515 401v104h105v-104h-105zM285 631 v105h104v-105h-104zM400 631v105h105v-105h-105zM55 746v105h104v-105h-104zM285 746v105h104v-105h-104zM400 746v105h105v-105h-105z" />
<glyph unicode="&#xaf;" d="M55 55v105h105v-105h-105zM55 170v105h105v-105h-105zM55 286v105h105v-105h-105zM169 401v104h105v-104h-105zM169 516v105h105v-105h-105zM285 631v105h105v-105h-105zM400 746v105h105v-105h-105zM515 746v105h105v-105h-105z" />
<glyph unicode="&#xb0;" d="M515 55v105h105v-105h-105zM515 170v105h105v-105h-105zM515 286v105h105v-105h-105zM400 401v104h105v-104h-105zM400 516v105h105v-105h-105zM285 631v105h105v-105h-105zM55 746v105h105v-105h-105zM169 746v105h105v-105h-105z" />
<glyph unicode="&#xb1;" d="M55 55v105h104v-105h-104zM169 55v105h105v-105h-105zM285 55v105h105v-105h-105zM400 55v105h105v-105h-105zM515 55v105h105v-105h-105zM285 286v105h104v-105h-104zM285 401v104h104v-104h-104zM55 516v104h104v-104h-104zM169 516v104h105v-104h-105zM285 516v104 h104v-104h-104zM400 516v105h105v-105h-105zM515 516v105h105v-105h-105zM285 631v105h104v-105h-104zM285 746v105h104v-105h-104z" />
<glyph unicode="&#xb2;" d="M55 55v105h104v-105h-104zM169 55v105h105v-105h-105zM285 55v105h105v-105h-105zM400 55v105h105v-105h-105zM515 55v105h105v-105h-105zM55 170v105h104v-105h-104zM169 286v104h105v-104h-105zM285 401v104h104v-104h-104zM169 516v104h105v-104h-105zM55 631v105h104 v-105h-104zM55 746v105h104v-105h-104zM169 746v105h105v-105h-105zM285 746v105h104v-105h-104zM400 746v105h105v-105h-105zM515 746v105h105v-105h-105z" />
<glyph unicode="&#xb3;" d="M55 55v105h104v-105h-104zM515 55v105h105v-105h-105zM55 170v105h104v-105h-104zM515 170v105h105v-105h-105zM55 285v105h104v-105h-104zM515 286v105h105v-105h-105zM55 401v104h104v-104h-104zM515 401v104h105v-104h-105zM55 516v104h104v-104h-104zM515 516v105 h105v-105h-105zM55 631v105h104v-105h-104zM515 631v105h105v-105h-105zM55 746v105h104v-105h-104zM169 746v105h105v-105h-105zM285 746v105h104v-105h-104zM400 746v105h105v-105h-105zM515 746v105h105v-105h-105z" />
<glyph unicode="&#xb4;" d="M169 55v105h105v-105h-105zM285 55v105h104v-105h-104zM400 55v105h105v-105h-105zM55 170v105h104v-105h-104zM515 170v105h105v-105h-105zM55 285v105h104v-105h-104zM515 286v105h105v-105h-105zM169 516v104h105v-104h-105zM400 516v105h105v-105h-105zM169 631v105 h105v-105h-105zM400 631v105h105v-105h-105z" />
<glyph unicode="&#xb5;" d="M55 55v105h105v-105h-105zM55 170v105h105v-105h-105zM55 286v105h105v-105h-105zM169 286v105h105v-105h-105zM285 286v105h105v-105h-105zM400 286v105h105v-105h-105zM55 401v104h105v-104h-105zM515 401v104h105v-104h-105zM55 516v105h105v-105h-105zM515 516v105 h105v-105h-105z" />
<glyph unicode="&#xb6;" d="M285 55v105h104v-105h-104zM515 55v105h105v-105h-105zM285 170v105h104v-105h-104zM515 170v105h105v-105h-105zM285 285v105h104v-105h-104zM515 286v105h105v-105h-105zM169 401v104h105v-104h-105zM285 401v104h104v-104h-104zM515 401v104h105v-104h-105zM55 516 v104h104v-104h-104zM169 516v104h105v-104h-105zM285 516v104h104v-104h-104zM515 516v105h105v-105h-105zM55 631v105h104v-105h-104zM169 631v105h105v-105h-105zM285 631v105h104v-105h-104zM515 631v105h105v-105h-105zM169 746v105h105v-105h-105zM285 746v105h104 v-105h-104zM400 746v105h105v-105h-105zM515 746v105h105v-105h-105z" />
<glyph unicode="&#xb7;" d="M55 55v105h104v-105h-104zM515 55v105h105v-105h-105zM55 170v105h104v-105h-104zM515 170v105h105v-105h-105zM169 286v105h105v-105h-105zM285 286v105h104v-105h-104zM400 286v105h105v-105h-105zM169 516v104h105v-104h-105zM400 516v105h105v-105h-105zM169 631v105 h105v-105h-105zM400 631v105h105v-105h-105z" />
<glyph unicode="&#xb8;" d="M55 55v105h104v-105h-104zM169 55v105h105v-105h-105zM285 55v105h104v-105h-104zM400 55v105h105v-105h-105zM515 55v105h105v-105h-105zM55 170v104h104v-104h-104zM515 170v105h105v-105h-105zM55 285v105h104v-105h-104zM515 286v105h105v-105h-105zM55 401v104h104 v-104h-104zM515 401v104h105v-104h-105zM55 515v105h104v-105h-104zM515 516v105h105v-105h-105zM55 631v105h104v-105h-104zM515 631v105h105v-105h-105zM55 746v105h104v-105h-104zM169 746v105h105v-105h-105zM285 746v105h104v-105h-104zM400 746v105h105v-105h-105z M515 746v105h105v-105h-105z" />
<glyph unicode="&#xb9;" d="M55 55v105h104v-105h-104zM169 55v105h105v-105h-105zM285 55v105h104v-105h-104zM400 55v105h105v-105h-105zM515 55v105h105v-105h-105zM285 170v105h104v-105h-104zM55 285v105h104v-105h-104zM169 285v105h105v-105h-105zM285 285v105h104v-105h-104zM400 286v105 h105v-105h-105zM515 286v105h105v-105h-105zM285 401v104h104v-104h-104zM55 515v105h104v-105h-104zM169 515v105h105v-105h-105zM285 516v104h104v-104h-104zM400 516v104h105v-104h-105zM515 516v105h105v-105h-105zM285 631v105h104v-105h-104zM55 746v105h104v-105 h-104zM169 746v105h105v-105h-105zM285 746v105h104v-105h-104zM400 746v105h105v-105h-105zM515 746v105h105v-105h-105z" />
<glyph unicode="&#xba;" d="M285 516v105h105v-105h-105zM170 631v105h104v-105h-104zM401 632v104h104v-104h-104zM285 746v105h105v-105h-105z" />
<glyph unicode="&#xbb;" d="M55 851v-105h105v105h-105zM55 621v-105h105v105h-105zM55 391v-105h105v105h-105zM55 160v-105h105v105h-105zM170 736v-104h104v104h-104zM170 505v-104h104v104h-104zM170 275v-105h104v105h-104zM285 851v-105h105v105h-105zM285 621v-105h105v105h-105zM285 391 v-105h105v105h-105zM285 160v-105h105v105h-105zM401 736v-104h104v104h-104zM401 505v-104h104v104h-104zM401 275v-105h104v105h-104zM515 851v-105h105v105h-105zM515 621v-105h105v105h-105zM515 391v-105h105v105h-105zM515 160v-105h105v105h-105z" />
<glyph unicode="&#xbc;" d="M285 55v105h104v-105h-104zM285 170v105h104v-105h-104zM55 286v104h104v-104h-104zM169 286v104h105v-104h-105zM285 286v104h104v-104h-104zM400 286v105h105v-105h-105zM515 286v105h105v-105h-105zM55 401v104h104v-104h-104zM285 401v104h104v-104h-104zM515 401 v104h105v-104h-105zM55 515v105h104v-105h-104zM285 516v104h104v-104h-104zM515 516v105h105v-105h-105zM55 631v105h104v-105h-104zM285 631v105h104v-105h-104zM515 631v105h105v-105h-105zM55 746v105h104v-105h-104zM169 746v105h105v-105h-105zM285 746v105h104v-105 h-104zM400 746v105h105v-105h-105zM515 746v105h105v-105h-105z" />
<glyph unicode="&#xbd;" d="M55 55v105h104v-105h-104zM169 55v105h105v-105h-105zM285 55v105h104v-105h-104zM400 55v105h105v-105h-105zM515 55v105h105v-105h-105zM55 170v105h104v-105h-104zM515 170v105h105v-105h-105zM55 285v105h104v-105h-104zM515 286v105h105v-105h-105zM55 401v104h104 v-104h-104zM515 401v104h105v-104h-105zM169 516v104h105v-104h-105zM400 516v104h105v-104h-105zM169 631v105h105v-105h-105zM400 631v105h105v-105h-105zM285 746v105h104v-105h-104z" />
<glyph unicode="&#xbe;" d="M55 55v105h104v-105h-104zM515 55v105h105v-105h-105zM55 170v105h104v-105h-104zM515 170v105h105v-105h-105zM55 285v105h104v-105h-104zM515 286v105h105v-105h-105zM55 401v104h104v-104h-104zM515 401v104h105v-104h-105zM169 516v104h105v-104h-105zM400 516v105 h105v-105h-105zM169 631v105h105v-105h-105zM400 631v105h105v-105h-105zM285 746v105h104v-105h-104z" />
<glyph unicode="&#xbf;" d="M169 55v105h105v-105h-105zM285 55v105h105v-105h-105zM400 55v105h105v-105h-105zM55 170v105h105v-105h-105zM515 170v105h105v-105h-105zM55 286v105h105v-105h-105zM169 401v104h105v-104h-105zM285 516v105h105v-105h-105zM285 746v105h105v-105h-105z" />
<glyph unicode="&#xc0;" d="M55 55v105h104v-105h-104zM515 55v105h105v-105h-105zM55 170v105h104v-105h-104zM515 170v105h105v-105h-105zM55 285v105h104v-105h-104zM169 285v105h105v-105h-105zM285 286v105h104v-105h-104zM400 286v105h105v-105h-105zM515 286v105h105v-105h-105zM55 401v104 h104v-104h-104zM515 401v104h105v-104h-105zM169 516v104h105v-104h-105zM285 516v104h104v-104h-104zM400 516v104h105v-104h-105zM285 631v105h104v-105h-104zM169 746v105h105v-105h-105z" />
<glyph unicode="&#xc1;" d="M55 55v105h104v-105h-104zM515 55v105h105v-105h-105zM55 170v105h104v-105h-104zM515 170v105h105v-105h-105zM55 285v105h104v-105h-104zM169 285v105h105v-105h-105zM285 286v105h104v-105h-104zM400 286v105h105v-105h-105zM515 286v105h105v-105h-105zM55 401v104 h104v-104h-104zM515 401v104h105v-104h-105zM169 516v104h105v-104h-105zM285 516v104h104v-104h-104zM400 516v104h105v-104h-105zM285 631v105h104v-105h-104zM400 746v105h105v-105h-105z" />
<glyph unicode="&#xc2;" d="M55 55v105h104v-105h-104zM515 55v105h105v-105h-105zM55 170v104h104v-104h-104zM515 170v105h105v-105h-105zM55 285v105h104v-105h-104zM169 285v105h105v-105h-105zM285 286v105h104v-105h-104zM400 286v105h105v-105h-105zM515 286v105h105v-105h-105zM55 401v104 h104v-104h-104zM515 401v104h105v-104h-105zM169 516v104h105v-104h-105zM285 516v104h104v-104h-104zM400 516v104h105v-104h-105zM169 631v105h105v-105h-105zM400 631v105h105v-105h-105zM285 746v105h104v-105h-104z" />
<glyph unicode="&#xc3;" d="M55 55v105h104v-105h-104zM515 55v105h105v-105h-105zM55 170v104h104v-104h-104zM515 170v105h105v-105h-105zM55 285v105h104v-105h-104zM169 285v105h105v-105h-105zM285 286v105h104v-105h-104zM400 286v105h105v-105h-105zM515 286v105h105v-105h-105zM55 401v104 h104v-104h-104zM515 401v104h105v-104h-105zM169 516v104h105v-104h-105zM285 516v104h104v-104h-104zM400 516v104h105v-104h-105zM55 631v105h104v-105h-104zM285 631v105h104v-105h-104zM169 746v105h105v-105h-105zM400 746v105h105v-105h-105z" />
<glyph unicode="&#xc4;" d="M55 55v105h104v-105h-104zM515 55v105h105v-105h-105zM55 170v105h104v-105h-104zM515 170v105h105v-105h-105zM55 285v105h104v-105h-104zM169 285v105h105v-105h-105zM285 286v105h104v-105h-104zM400 286v105h105v-105h-105zM515 286v105h105v-105h-105zM55 401v104 h104v-104h-104zM515 401v104h105v-104h-105zM169 516v104h105v-104h-105zM285 516v104h104v-104h-104zM400 516v104h105v-104h-105zM169 746v105h105v-105h-105zM400 746v105h105v-105h-105z" />
<glyph unicode="&#xc5;" d="M55 55v105h104v-105h-104zM515 55v105h105v-105h-105zM55 170v104h104v-104h-104zM515 170v105h105v-105h-105zM55 285v105h104v-105h-104zM169 285v105h105v-105h-105zM285 286v104h104v-104h-104zM400 286v105h105v-105h-105zM515 286v105h105v-105h-105zM55 401v104 h104v-104h-104zM515 401v104h105v-104h-105zM169 516v104h105v-104h-105zM285 516v104h104v-104h-104zM400 516v104h105v-104h-105zM169 631v105h105v-105h-105zM400 631v105h105v-105h-105zM169 746v105h105v-105h-105zM285 746v105h104v-105h-104zM400 746v105h105v-105 h-105z" />
<glyph unicode="&#xc6;" d="M55 55v105h104v-105h-104zM285 55v105h104v-105h-104zM400 55v105h105v-105h-105zM515 55v105h105v-105h-105zM55 170v104h104v-104h-104zM285 170v105h104v-105h-104zM55 285v105h104v-105h-104zM285 286v104h104v-104h-104zM55 401v104h104v-104h-104zM169 401v104h105 v-104h-105zM285 401v104h104v-104h-104zM400 401v104h105v-104h-105zM515 401v104h105v-104h-105zM55 515v105h104v-105h-104zM285 516v104h104v-104h-104zM55 631v105h104v-105h-104zM285 631v105h104v-105h-104zM169 746v105h105v-105h-105zM285 746v105h104v-105h-104z M400 746v105h105v-105h-105zM515 746v105h105v-105h-105z" />
<glyph unicode="&#xc7;" d="M285 55v105h105v-105h-105zM169 170v105h105v-105h-105zM285 170v105h104v-105h-104zM400 170v105h105v-105h-105zM55 286v104h104v-104h-104zM515 286v105h105v-105h-105zM55 401v104h104v-104h-104zM55 516v104h104v-104h-104zM55 631v105h104v-105h-104zM515 631v105 h105v-105h-105zM169 746v105h105v-105h-105zM285 746v105h104v-105h-104zM400 746v105h105v-105h-105z" />
<glyph unicode="&#xc8;" d="M55 55v105h104v-105h-104zM169 55v105h105v-105h-105zM285 55v105h104v-105h-104zM400 55v105h105v-105h-105zM515 55v105h105v-105h-105zM55 170v104h104v-104h-104zM55 285v105h104v-105h-104zM169 285v105h105v-105h-105zM285 286v105h104v-105h-104zM400 286v105h105 v-105h-105zM55 401v104h104v-104h-104zM55 515v105h104v-105h-104zM169 516v104h105v-104h-105zM285 516v104h104v-104h-104zM400 516v105h105v-105h-105zM515 516v105h105v-105h-105zM285 631v105h104v-105h-104zM169 746v105h105v-105h-105z" />
<glyph unicode="&#xc9;" d="M55 55v105h104v-105h-104zM169 55v105h105v-105h-105zM285 55v105h104v-105h-104zM400 55v105h105v-105h-105zM515 55v105h105v-105h-105zM55 170v104h104v-104h-104zM55 285v105h104v-105h-104zM169 285v105h105v-105h-105zM285 286v105h104v-105h-104zM400 286v105h105 v-105h-105zM55 401v104h104v-104h-104zM55 515v105h104v-105h-104zM169 516v104h105v-104h-105zM285 516v104h104v-104h-104zM400 516v105h105v-105h-105zM515 516v105h105v-105h-105zM285 631v105h104v-105h-104zM400 746v105h105v-105h-105z" />
<glyph unicode="&#xca;" d="M55 55v105h104v-105h-104zM169 55v105h105v-105h-105zM285 55v105h104v-105h-104zM400 55v105h105v-105h-105zM515 55v105h105v-105h-105zM55 170v104h104v-104h-104zM55 285v105h104v-105h-104zM169 285v105h105v-105h-105zM285 286v105h104v-105h-104zM400 286v105h105 v-105h-105zM55 401v104h104v-104h-104zM55 515v105h104v-105h-104zM169 516v104h105v-104h-105zM285 516v104h104v-104h-104zM400 516v105h105v-105h-105zM515 516v105h105v-105h-105zM169 631v105h105v-105h-105zM400 631v105h105v-105h-105zM285 746v105h104v-105h-104z " />
<glyph unicode="&#xcb;" d="M55 55v105h104v-105h-104zM169 55v105h105v-105h-105zM285 55v105h104v-105h-104zM400 55v105h105v-105h-105zM515 55v105h105v-105h-105zM55 170v104h104v-104h-104zM55 285v105h104v-105h-104zM169 285v105h105v-105h-105zM285 286v105h104v-105h-104zM400 286v105h105 v-105h-105zM55 401v104h104v-104h-104zM55 515v105h104v-105h-104zM169 516v104h105v-104h-105zM285 516v104h104v-104h-104zM400 516v105h105v-105h-105zM515 516v105h105v-105h-105zM169 746v105h105v-105h-105zM400 746v105h105v-105h-105z" />
<glyph unicode="&#xcc;" d="M170 55v105h104v-105h-104zM285 55v105h105v-105h-105zM401 55v105h104v-105h-104zM285 170v105h105v-105h-105zM285 286v105h105v-105h-105zM285 401v104h104v-104h-104zM170 516v104h104v-104h-104zM285 516v104h104v-104h-104zM400 516v105h105v-105h-105zM285 631 v105h104v-105h-104zM170 746v105h104v-105h-104z" />
<glyph unicode="&#xcd;" d="M170 55v105h104v-105h-104zM285 55v105h105v-105h-105zM401 55v105h104v-105h-104zM285 170v105h105v-105h-105zM285 286v105h104v-105h-104zM285 401v104h104v-104h-104zM170 516v104h104v-104h-104zM285 516v104h104v-104h-104zM400 516v105h105v-105h-105zM285 631 v105h104v-105h-104zM400 746v105h105v-105h-105z" />
<glyph unicode="&#xce;" d="M170 55v105h104v-105h-104zM285 55v105h105v-105h-105zM401 55v105h104v-105h-104zM285 170v105h105v-105h-105zM285 286v105h104v-105h-104zM285 401v104h104v-104h-104zM170 516v104h104v-104h-104zM285 516v104h104v-104h-104zM400 516v105h105v-105h-105zM170 631 v105h104v-105h-104zM400 631v105h105v-105h-105zM285 746v105h104v-105h-104z" />
<glyph unicode="&#xcf;" d="M170 55v105h104v-105h-104zM285 55v105h105v-105h-105zM401 55v105h104v-105h-104zM285 170v105h105v-105h-105zM285 286v105h104v-105h-104zM285 401v104h104v-104h-104zM170 516v104h104v-104h-104zM285 516v104h104v-104h-104zM400 516v105h105v-105h-105zM170 746 v105h104v-105h-104zM400 746v105h105v-105h-105z" />
<glyph unicode="&#xd0;" d="M169 55v105h105v-105h-105zM285 55v105h104v-105h-104zM400 55v105h105v-105h-105zM169 170v105h105v-105h-105zM515 170v105h105v-105h-105zM169 285v105h105v-105h-105zM515 286v105h105v-105h-105zM55 401v104h104v-104h-104zM169 401v104h105v-104h-105zM285 401v104 h104v-104h-104zM515 401v104h105v-104h-105zM169 516v104h105v-104h-105zM515 516v105h105v-105h-105zM169 631v105h105v-105h-105zM515 631v105h105v-105h-105zM169 746v105h105v-105h-105zM285 746v105h104v-105h-104zM400 746v105h105v-105h-105z" />
<glyph unicode="&#xd1;" d="M55 55v105h104v-105h-104zM515 55v105h105v-105h-105zM55 170v105h104v-105h-104zM400 170v105h105v-105h-105zM515 170v105h105v-105h-105zM55 285v105h104v-105h-104zM285 286v105h104v-105h-104zM515 286v105h105v-105h-105zM55 401v104h104v-104h-104zM169 401v104 h105v-104h-105zM515 401v104h105v-104h-105zM55 516v104h104v-104h-104zM515 516v105h105v-105h-105zM169 746v105h105v-105h-105zM285 746v105h104v-105h-104zM400 746v105h105v-105h-105z" />
<glyph unicode="&#xd2;" d="M169 55v105h105v-105h-105zM285 55v105h104v-105h-104zM400 55v105h105v-105h-105zM55 170v105h104v-105h-104zM515 170v105h105v-105h-105zM55 285v105h104v-105h-104zM515 286v105h105v-105h-105zM55 401v104h104v-104h-104zM515 401v104h105v-104h-105zM169 516v104 h105v-104h-105zM285 516v104h104v-104h-104zM400 516v105h105v-105h-105zM285 631v105h104v-105h-104zM169 746v105h105v-105h-105z" />
<glyph unicode="&#xd3;" d="M169 55v105h105v-105h-105zM285 55v105h104v-105h-104zM400 55v105h105v-105h-105zM55 170v105h104v-105h-104zM515 170v105h105v-105h-105zM55 285v105h104v-105h-104zM515 286v105h105v-105h-105zM55 401v104h104v-104h-104zM515 401v104h105v-104h-105zM169 516v104 h105v-104h-105zM285 516v104h104v-104h-104zM400 516v105h105v-105h-105zM285 631v105h104v-105h-104zM400 746v105h105v-105h-105z" />
<glyph unicode="&#xd4;" d="M169 55v105h105v-105h-105zM285 55v105h104v-105h-104zM400 55v105h105v-105h-105zM55 170v105h104v-105h-104zM515 170v105h105v-105h-105zM55 285v105h104v-105h-104zM515 286v105h105v-105h-105zM55 401v104h104v-104h-104zM515 401v104h105v-104h-105zM169 516v104 h105v-104h-105zM285 516v104h104v-104h-104zM400 516v105h105v-105h-105zM169 631v105h105v-105h-105zM400 631v105h105v-105h-105zM285 746v105h104v-105h-104z" />
<glyph unicode="&#xd5;" d="M169 55v105h105v-105h-105zM285 55v105h104v-105h-104zM400 55v105h105v-105h-105zM55 170v105h104v-105h-104zM515 170v105h105v-105h-105zM55 285v105h104v-105h-104zM515 286v105h105v-105h-105zM55 401v104h104v-104h-104zM515 401v104h105v-104h-105zM169 516v104 h105v-104h-105zM285 516v104h104v-104h-104zM400 516v105h105v-105h-105zM55 631v105h104v-105h-104zM285 631v105h104v-105h-104zM169 746v105h105v-105h-105zM400 746v105h105v-105h-105z" />
<glyph unicode="&#xd6;" d="M169 55v105h105v-105h-105zM285 55v105h104v-105h-104zM400 55v105h105v-105h-105zM55 170v105h104v-105h-104zM515 170v105h105v-105h-105zM55 285v105h104v-105h-104zM515 286v105h105v-105h-105zM55 401v104h104v-104h-104zM515 401v104h105v-104h-105zM55 516v104 h104v-104h-104zM515 516v105h105v-105h-105zM169 631v105h105v-105h-105zM285 631v105h104v-105h-104zM400 631v105h105v-105h-105zM169 746v105h105v-105h-105zM400 746v105h105v-105h-105z" />
<glyph unicode="&#xd7;" d="M55 170v105h105v-105h-105zM515 170v105h105v-105h-105zM169 286v105h105v-105h-105zM400 286v105h105v-105h-105zM285 401v104h105v-104h-105zM169 516v104h105v-104h-105zM400 516v105h105v-105h-105zM55 631v105h105v-105h-105zM515 631v105h105v-105h-105z" />
<glyph unicode="&#xd8;" d="M55 55v105h104v-105h-104zM285 55v105h104v-105h-104zM400 55v105h105v-105h-105zM169 170v105h105v-105h-105zM515 170v105h105v-105h-105zM55 285v105h104v-105h-104zM285 286v104h104v-104h-104zM515 286v105h105v-105h-105zM55 401v104h104v-104h-104zM285 401v104 h104v-104h-104zM515 401v104h105v-104h-105zM55 515v105h104v-105h-104zM285 516v104h104v-104h-104zM515 516v105h105v-105h-105zM55 631v105h104v-105h-104zM400 631v105h105v-105h-105zM169 746v105h105v-105h-105zM285 746v105h104v-105h-104zM515 746v105h105v-105 h-105z" />
<glyph unicode="&#xd9;" d="M169 55v105h105v-105h-105zM285 55v105h104v-105h-104zM400 55v105h105v-105h-105zM55 170v105h104v-105h-104zM515 170v105h105v-105h-105zM55 285v105h104v-105h-104zM515 286v105h105v-105h-105zM55 401v104h104v-104h-104zM515 401v104h105v-104h-105zM55 516v104 h104v-104h-104zM515 516v105h105v-105h-105zM285 631v105h104v-105h-104zM169 746v105h105v-105h-105z" />
<glyph unicode="&#xda;" d="M169 55v105h105v-105h-105zM285 55v105h104v-105h-104zM400 55v105h105v-105h-105zM55 170v105h104v-105h-104zM515 170v105h105v-105h-105zM55 285v105h104v-105h-104zM515 286v105h105v-105h-105zM55 401v104h104v-104h-104zM515 401v104h105v-104h-105zM55 516v104 h104v-104h-104zM515 516v105h105v-105h-105zM285 631v105h104v-105h-104zM400 746v105h105v-105h-105z" />
<glyph unicode="&#xdb;" d="M169 55v105h105v-105h-105zM285 55v105h104v-105h-104zM400 55v105h105v-105h-105zM55 170v105h104v-105h-104zM515 170v105h105v-105h-105zM55 285v105h104v-105h-104zM515 286v105h105v-105h-105zM55 401v104h104v-104h-104zM515 401v104h105v-104h-105zM169 631v105 h105v-105h-105zM400 631v105h105v-105h-105zM285 746v105h104v-105h-104z" />
<glyph unicode="&#xdc;" d="M169 55v105h105v-105h-105zM285 55v105h104v-105h-104zM400 55v105h105v-105h-105zM55 170v105h104v-105h-104zM515 170v105h105v-105h-105zM55 285v105h104v-105h-104zM515 286v105h105v-105h-105zM55 401v104h104v-104h-104zM515 401v104h105v-104h-105zM55 516v104 h104v-104h-104zM515 516v105h105v-105h-105zM169 746v105h105v-105h-105zM400 746v105h105v-105h-105z" />
<glyph unicode="&#xdd;" d="M285 55v105h105v-105h-105zM285 170v105h105v-105h-105zM285 286v105h104v-105h-104zM169 401v104h105v-104h-105zM400 401v104h105v-104h-105zM55 516v104h105v-104h-105zM515 516v105h105v-105h-105zM285 631v105h104v-105h-104zM400 746v105h105v-105h-105z" />
<glyph unicode="&#xde;" d="M55 55v105h105v-105h-105zM55 170v105h105v-105h-105zM55 286v105h105v-105h-105zM169 286v105h105v-105h-105zM285 286v105h105v-105h-105zM55 401v104h105v-104h-105zM401 401v104h104v-104h-104zM55 516v104h104v-104h-104zM169 516v105h105v-105h-105zM285 516v105 h105v-105h-105zM55 631v105h104v-105h-104zM55 746v105h104v-105h-104z" />
<glyph unicode="&#xdf;" d="M55 55v105h104v-105h-104zM55 170v105h104v-105h-104zM169 170v105h105v-105h-105zM285 170v105h104v-105h-104zM400 170v105h105v-105h-105zM55 285v105h104v-105h-104zM515 286v105h105v-105h-105zM55 401v104h104v-104h-104zM169 401v104h105v-104h-105zM285 401v104 h104v-104h-104zM400 401v104h105v-104h-105zM55 516v104h104v-104h-104zM515 516v105h105v-105h-105zM169 631v105h105v-105h-105zM285 631v105h104v-105h-104zM400 631v105h105v-105h-105z" />
<glyph unicode="&#xe0;" d="M169 55v105h105v-105h-105zM285 55v105h104v-105h-104zM400 55v105h105v-105h-105zM515 55v105h105v-105h-105zM55 170v104h104v-104h-104zM515 170v105h105v-105h-105zM169 285v105h105v-105h-105zM285 286v104h104v-104h-104zM400 286v105h105v-105h-105zM515 286v105 h105v-105h-105zM515 401v104h105v-104h-105zM169 516v104h105v-104h-105zM285 516v104h104v-104h-104zM400 516v104h105v-104h-105zM285 631v105h104v-105h-104zM169 746v105h105v-105h-105z" />
<glyph unicode="&#xe1;" d="M169 55v105h105v-105h-105zM285 55v105h104v-105h-104zM400 55v105h105v-105h-105zM515 55v105h105v-105h-105zM55 170v104h104v-104h-104zM515 170v105h105v-105h-105zM169 285v105h105v-105h-105zM285 285v105h104v-105h-104zM400 286v105h105v-105h-105zM515 286v105 h105v-105h-105zM515 401v104h105v-104h-105zM169 516v104h105v-104h-105zM285 516v104h104v-104h-104zM400 516v104h105v-104h-105zM285 631v105h104v-105h-104zM400 746v105h105v-105h-105z" />
<glyph unicode="&#xe2;" d="M169 55v105h105v-105h-105zM285 55v105h104v-105h-104zM400 55v105h105v-105h-105zM515 55v105h105v-105h-105zM55 170v104h104v-104h-104zM515 170v105h105v-105h-105zM169 285v105h105v-105h-105zM285 285v105h104v-105h-104zM400 286v105h105v-105h-105zM515 286v105 h105v-105h-105zM515 401v104h105v-104h-105zM169 516v104h105v-104h-105zM285 516v104h104v-104h-104zM400 516v104h105v-104h-105zM169 631v105h105v-105h-105zM400 631v105h105v-105h-105zM285 746v105h104v-105h-104z" />
<glyph unicode="&#xe3;" d="M169 55v105h105v-105h-105zM285 55v105h104v-105h-104zM400 55v105h105v-105h-105zM515 55v105h105v-105h-105zM55 170v104h104v-104h-104zM515 170v105h105v-105h-105zM169 285v105h105v-105h-105zM285 285v105h104v-105h-104zM400 286v105h105v-105h-105zM515 286v105 h105v-105h-105zM515 401v104h105v-104h-105zM169 516v104h105v-104h-105zM285 516v104h104v-104h-104zM400 516v104h105v-104h-105zM55 631v105h104v-105h-104zM285 631v105h104v-105h-104zM169 746v105h105v-105h-105zM400 746v105h105v-105h-105z" />
<glyph unicode="&#xe4;" d="M169 55v105h105v-105h-105zM285 55v105h104v-105h-104zM400 55v105h105v-105h-105zM515 55v105h105v-105h-105zM55 170v104h104v-104h-104zM515 170v105h105v-105h-105zM169 285v105h105v-105h-105zM285 285v105h104v-105h-104zM400 286v105h105v-105h-105zM515 286v105 h105v-105h-105zM515 401v104h105v-104h-105zM169 516v104h105v-104h-105zM285 516v104h104v-104h-104zM400 516v104h105v-104h-105zM169 746v105h105v-105h-105zM400 746v105h105v-105h-105z" />
<glyph unicode="&#xe5;" d="M169 55v105h105v-105h-105zM285 55v105h104v-105h-104zM400 55v105h105v-105h-105zM515 55v105h105v-105h-105zM55 170v104h104v-104h-104zM515 170v105h105v-105h-105zM169 285v105h105v-105h-105zM285 285v105h104v-105h-104zM400 286v105h105v-105h-105zM515 286v105 h105v-105h-105zM515 401v104h105v-104h-105zM169 515v105h105v-105h-105zM285 516v104h104v-104h-104zM400 516v104h105v-104h-105zM169 631v105h105v-105h-105zM400 631v105h105v-105h-105zM285 746v105h104v-105h-104zM170 746v105h104v-105h-104zM401 746v105h104v-105 h-104z" />
<glyph unicode="&#xe6;" d="M55 55v105h104v-105h-104zM169 55v105h105v-105h-105zM285 55v105h104v-105h-104zM400 55v105h105v-105h-105zM515 55v105h105v-105h-105zM55 170v104h104v-104h-104zM285 170v105h104v-105h-104zM55 285v105h104v-105h-104zM169 285v105h105v-105h-105zM285 286v104h104 v-104h-104zM400 286v105h105v-105h-105zM515 286v105h105v-105h-105zM285 401v104h104v-104h-104zM515 401v104h105v-104h-105zM55 516v105h104v-105h-104zM169 516v105h105v-105h-105zM400 516v105h105v-105h-105z" />
<glyph unicode="&#xe7;" d="M169 55v105h105v-105h-105zM285 55v105h105v-105h-105zM285 170v105h105v-105h-105zM169 286v104h105v-104h-105zM285 286v105h104v-105h-104zM400 286v105h105v-105h-105zM55 401v104h104v-104h-104zM515 401v104h105v-104h-105zM55 516v104h104v-104h-104zM55 631v105 h104v-105h-104zM169 746v105h105v-105h-105zM285 746v105h104v-105h-104zM400 746v105h105v-105h-105z" />
<glyph unicode="&#xe8;" d="M169 55v105h105v-105h-105zM285 55v105h104v-105h-104zM400 55v105h105v-105h-105zM55 170v105h104v-105h-104zM55 285v105h104v-105h-104zM169 285v105h105v-105h-105zM285 286v105h104v-105h-104zM400 286v105h105v-105h-105zM515 286v105h105v-105h-105zM55 401v104 h104v-104h-104zM515 401v104h105v-104h-105zM169 516v104h105v-104h-105zM285 516v104h104v-104h-104zM400 516v105h105v-105h-105zM285 631v105h104v-105h-104zM169 746v105h105v-105h-105z" />
<glyph unicode="&#xe9;" d="M169 55v105h105v-105h-105zM285 55v105h104v-105h-104zM400 55v105h105v-105h-105zM55 170v105h104v-105h-104zM55 285v105h104v-105h-104zM169 285v105h105v-105h-105zM285 286v105h104v-105h-104zM400 286v105h105v-105h-105zM515 286v105h105v-105h-105zM55 401v104 h104v-104h-104zM515 401v104h105v-104h-105zM169 516v104h105v-104h-105zM285 516v104h104v-104h-104zM400 516v105h105v-105h-105zM285 631v105h104v-105h-104zM400 746v105h105v-105h-105z" />
<glyph unicode="&#xea;" d="M169 55v105h105v-105h-105zM285 55v105h104v-105h-104zM400 55v105h105v-105h-105zM55 170v104h104v-104h-104zM55 285v105h104v-105h-104zM169 285v105h105v-105h-105zM285 286v105h104v-105h-104zM400 286v105h105v-105h-105zM515 286v105h105v-105h-105zM55 401v104 h104v-104h-104zM515 401v104h105v-104h-105zM169 516v104h105v-104h-105zM285 516v104h104v-104h-104zM400 516v105h105v-105h-105zM169 631v105h105v-105h-105zM400 631v105h105v-105h-105zM285 746v105h104v-105h-104z" />
<glyph unicode="&#xeb;" d="M169 55v105h105v-105h-105zM285 55v105h104v-105h-104zM400 55v105h105v-105h-105zM55 170v105h104v-105h-104zM55 285v105h104v-105h-104zM169 285v105h105v-105h-105zM285 286v105h104v-105h-104zM400 286v105h105v-105h-105zM515 286v105h105v-105h-105zM55 401v104 h104v-104h-104zM515 401v104h105v-104h-105zM169 516v104h105v-104h-105zM285 516v104h104v-104h-104zM400 516v105h105v-105h-105zM169 746v105h105v-105h-105zM400 746v105h105v-105h-105z" />
<glyph unicode="&#xec;" d="M170 55v105h104v-105h-104zM285 55v105h105v-105h-105zM401 55v105h104v-105h-104zM285 170v105h105v-105h-105zM285 286v105h105v-105h-105zM285 401v104h105v-104h-105zM170 516v104h104v-104h-104zM285 516v104h104v-104h-104zM285 631v105h104v-105h-104zM170 746 v105h104v-105h-104z" />
<glyph unicode="&#xed;" d="M170 55v105h104v-105h-104zM285 55v105h105v-105h-105zM401 55v105h104v-105h-104zM285 170v105h105v-105h-105zM285 286v105h105v-105h-105zM285 401v104h104v-104h-104zM170 516v104h104v-104h-104zM285 516v104h104v-104h-104zM285 631v105h104v-105h-104zM400 746 v105h105v-105h-105z" />
<glyph unicode="&#xee;" d="M170 55v105h104v-105h-104zM285 55v105h105v-105h-105zM401 55v105h104v-105h-104zM285 170v105h105v-105h-105zM285 286v105h105v-105h-105zM285 401v104h104v-104h-104zM170 516v104h104v-104h-104zM285 516v104h104v-104h-104zM170 631v105h104v-105h-104zM400 631 v105h105v-105h-105zM285 746v105h104v-105h-104z" />
<glyph unicode="&#xef;" d="M170 55v105h104v-105h-104zM285 55v105h105v-105h-105zM401 55v105h104v-105h-104zM285 170v105h105v-105h-105zM285 286v105h105v-105h-105zM285 401v104h104v-104h-104zM170 516v104h104v-104h-104zM285 516v104h104v-104h-104zM170 746v105h104v-105h-104zM400 746 v105h105v-105h-105z" />
<glyph unicode="&#xf0;" d="M169 55v105h105v-105h-105zM285 55v105h104v-105h-104zM400 55v105h105v-105h-105zM55 170v105h104v-105h-104zM400 170v105h105v-105h-105zM55 285v105h104v-105h-104zM285 285v105h104v-105h-104zM400 286v105h105v-105h-105zM169 401v104h105v-104h-105zM400 401v104 h105v-104h-105zM400 516v104h105v-104h-105zM285 631v105h104v-105h-104zM400 631v105h105v-105h-105zM515 632v104h105v-104h-105zM400 746v105h105v-105h-105z" />
<glyph unicode="&#xf1;" d="M55 55v105h104v-105h-104zM515 55v105h105v-105h-105zM55 170v105h104v-105h-104zM515 170v105h105v-105h-105zM55 285v105h104v-105h-104zM515 286v105h105v-105h-105zM55 401v104h104v-104h-104zM169 401v104h105v-104h-105zM515 401v104h105v-104h-105zM55 516v104 h104v-104h-104zM285 516v104h104v-104h-104zM400 516v105h105v-105h-105zM169 746v105h105v-105h-105zM285 746v105h104v-105h-104zM400 746v105h105v-105h-105z" />
<glyph unicode="&#xf2;" d="M169 55v105h105v-105h-105zM285 55v105h105v-105h-105zM400 55v105h105v-105h-105zM55 170v105h104v-105h-104zM515 170v105h105v-105h-105zM55 285v105h104v-105h-104zM515 286v105h105v-105h-105zM169 401v104h105v-104h-105zM285 401v104h104v-104h-104zM400 401v104 h105v-104h-105zM285 631v105h104v-105h-104zM169 746v105h105v-105h-105z" />
<glyph unicode="&#xf3;" d="M169 55v105h105v-105h-105zM285 55v105h104v-105h-104zM400 55v105h105v-105h-105zM55 170v105h104v-105h-104zM515 170v105h105v-105h-105zM55 285v105h104v-105h-104zM515 286v105h105v-105h-105zM169 401v104h105v-104h-105zM285 401v104h104v-104h-104zM400 401v104 h105v-104h-105zM285 631v105h104v-105h-104zM400 746v105h105v-105h-105z" />
<glyph unicode="&#xf4;" d="M169 55v105h105v-105h-105zM285 55v105h104v-105h-104zM400 55v105h105v-105h-105zM55 170v105h104v-105h-104zM515 170v105h105v-105h-105zM55 285v105h104v-105h-104zM515 286v105h105v-105h-105zM169 401v104h105v-104h-105zM285 401v104h104v-104h-104zM400 401v104 h105v-104h-105zM169 631v105h105v-105h-105zM400 631v105h105v-105h-105zM285 746v105h104v-105h-104z" />
<glyph unicode="&#xf5;" d="M169 55v105h105v-105h-105zM285 55v105h104v-105h-104zM400 55v105h105v-105h-105zM55 170v105h104v-105h-104zM515 170v105h105v-105h-105zM55 285v105h104v-105h-104zM515 286v105h105v-105h-105zM169 401v104h105v-104h-105zM285 401v104h104v-104h-104zM400 401v104 h105v-104h-105zM55 631v105h104v-105h-104zM285 631v105h104v-105h-104zM169 746v105h105v-105h-105zM400 746v105h105v-105h-105z" />
<glyph unicode="&#xf6;" d="M169 55v105h105v-105h-105zM285 55v105h104v-105h-104zM400 55v105h105v-105h-105zM55 170v105h104v-105h-104zM515 170v105h105v-105h-105zM55 285v105h104v-105h-104zM515 286v105h105v-105h-105zM55 401v104h104v-104h-104zM515 401v104h105v-104h-105zM169 516v104 h105v-104h-105zM285 516v104h104v-104h-104zM400 516v105h105v-105h-105zM169 746v105h105v-105h-105zM400 746v105h105v-105h-105z" />
<glyph unicode="&#xf7;" d="M285 170v105h105v-105h-105zM55 401v104h105v-104h-105zM169 401v104h105v-104h-105zM285 401v104h105v-104h-105zM400 401v104h105v-104h-105zM515 401v104h105v-104h-105zM285 631v105h105v-105h-105z" />
<glyph unicode="&#xf8;" d="M55 55v105h104v-105h-104zM285 55v105h104v-105h-104zM400 55v105h105v-105h-105zM169 170v105h105v-105h-105zM515 170v105h105v-105h-105zM55 285v105h104v-105h-104zM285 286v105h104v-105h-104zM515 286v105h105v-105h-105zM55 401v104h104v-104h-104zM400 401v104 h105v-104h-105zM169 516v105h105v-105h-105zM285 516v105h104v-105h-104zM515 516v105h105v-105h-105z" />
<glyph unicode="&#xf9;" d="M169 55v105h105v-105h-105zM285 55v105h104v-105h-104zM515 55v105h105v-105h-105zM55 170v105h104v-105h-104zM400 170v105h105v-105h-105zM515 170v105h105v-105h-105zM55 285v105h104v-105h-104zM515 286v105h105v-105h-105zM55 401v104h104v-104h-104zM515 401v104 h105v-104h-105zM55 516v104h104v-104h-104zM515 516v105h105v-105h-105zM285 631v105h104v-105h-104zM169 746v105h105v-105h-105z" />
<glyph unicode="&#xfa;" d="M169 55v105h105v-105h-105zM285 55v105h104v-105h-104zM515 55v105h105v-105h-105zM55 170v105h104v-105h-104zM400 170v105h105v-105h-105zM515 170v105h105v-105h-105zM55 285v105h104v-105h-104zM515 286v105h105v-105h-105zM55 401v104h104v-104h-104zM515 401v104 h105v-104h-105zM55 516v104h104v-104h-104zM515 516v105h105v-105h-105zM285 631v105h104v-105h-104zM400 746v105h105v-105h-105z" />
<glyph unicode="&#xfb;" d="M169 55v105h105v-105h-105zM285 55v105h104v-105h-104zM515 55v105h105v-105h-105zM55 170v105h104v-105h-104zM400 170v105h105v-105h-105zM515 170v105h105v-105h-105zM55 285v105h104v-105h-104zM515 286v105h105v-105h-105zM55 401v104h104v-104h-104zM515 401v104 h105v-104h-105zM169 631v105h105v-105h-105zM400 631v105h105v-105h-105zM285 746v105h104v-105h-104z" />
<glyph unicode="&#xfc;" d="M169 55v105h105v-105h-105zM285 55v105h104v-105h-104zM515 55v105h105v-105h-105zM55 170v105h104v-105h-104zM400 170v105h105v-105h-105zM515 170v105h105v-105h-105zM55 285v105h104v-105h-104zM515 286v105h105v-105h-105zM55 401v104h104v-104h-104zM515 401v104 h105v-104h-105zM55 516v104h104v-104h-104zM515 516v105h105v-105h-105zM169 746v105h105v-105h-105zM400 746v105h105v-105h-105z" />
<glyph unicode="&#xfd;" d="M169 55v105h105v-105h-105zM285 55v105h104v-105h-104zM400 55v105h105v-105h-105zM515 170v105h105v-105h-105zM169 285v105h105v-105h-105zM285 286v104h104v-104h-104zM400 286v105h105v-105h-105zM515 286v105h105v-105h-105zM55 401v104h104v-104h-104zM515 401v104 h105v-104h-105zM55 516v104h104v-104h-104zM515 516v105h105v-105h-105zM285 631v105h104v-105h-104zM400 746v105h105v-105h-105z" />
<glyph unicode="&#xfe;" d="M55 55v105h105v-105h-105zM55 170v105h105v-105h-105zM169 170v105h105v-105h-105zM285 170v105h105v-105h-105zM55 286v104h104v-104h-104zM401 286v105h104v-105h-104zM55 401v104h104v-104h-104zM400 401v104h105v-104h-105zM55 516v104h104v-104h-104zM400 516v105 h105v-105h-105zM55 631v105h104v-105h-104zM169 631v105h105v-105h-105zM285 631v105h105v-105h-105zM55 746v105h104v-105h-104z" />
<glyph unicode="&#xff;" d="M169 55v105h105v-105h-105zM285 55v105h104v-105h-104zM400 55v105h105v-105h-105zM515 170v105h105v-105h-105zM169 285v105h105v-105h-105zM285 286v104h104v-104h-104zM400 286v105h105v-105h-105zM515 286v105h105v-105h-105zM55 401v104h104v-104h-104zM515 401v104 h105v-104h-105zM55 516v104h104v-104h-104zM515 516v105h105v-105h-105zM169 746v105h105v-105h-105zM400 746v105h105v-105h-105z" />
<glyph unicode="&#x2000;" horiz-adv-x="466" />
<glyph unicode="&#x2001;" horiz-adv-x="933" />
<glyph unicode="&#x2002;" horiz-adv-x="466" />
<glyph unicode="&#x2003;" horiz-adv-x="933" />
<glyph unicode="&#x2004;" horiz-adv-x="311" />
<glyph unicode="&#x2005;" horiz-adv-x="233" />
<glyph unicode="&#x2006;" horiz-adv-x="155" />
<glyph unicode="&#x2007;" horiz-adv-x="155" />
<glyph unicode="&#x2008;" horiz-adv-x="116" />
<glyph unicode="&#x2009;" horiz-adv-x="186" />
<glyph unicode="&#x200a;" horiz-adv-x="51" />
<glyph unicode="&#x2010;" d="M60 515h552q10 -1 10 -9v-103q0 -9 -10 -9h-552q-9 0 -9 9v103q1 9 9 9z" />
<glyph unicode="&#x2011;" d="M60 515h552q10 -1 10 -9v-103q0 -9 -10 -9h-552q-9 0 -9 9v103q1 9 9 9z" />
<glyph unicode="&#x2012;" d="M60 515h552q10 -1 10 -9v-103q0 -9 -10 -9h-552q-9 0 -9 9v103q1 9 9 9z" />
<glyph unicode="&#x2013;" horiz-adv-x="780" d="M62 515h677q12 -1 12 -9v-103q0 -9 -12 -9h-677q-11 0 -11 9v103q1 9 11 9z" />
<glyph unicode="&#x2014;" horiz-adv-x="1480" d="M73 515h1353q25 -1 25 -9v-103q0 -9 -25 -9h-1353q-22 0 -22 9v103q2 9 22 9z" />
<glyph unicode="&#x202f;" horiz-adv-x="186" />
<glyph unicode="&#x205f;" horiz-adv-x="233" />
<glyph unicode="&#x25fc;" horiz-adv-x="623" d="M0 623h623v-623h-623v623z" />
</font>
</defs>
</svg>
